<svg width="28" height="30" viewBox="0 0 28 30" fill="none" xmlns="http://www.w3.org/2000/svg">
<g filter="url(#filter0_d_1_89)">
<path d="M14.0227 2C8.37603 2 4 6.12682 4 11.7009C4 14.6164 5.19805 17.1359 7.14814 18.8763C7.48486 19.1791 7.4155 19.3545 7.47276 21.2244C7.47727 21.3553 7.51375 21.4832 7.57903 21.5969C7.64431 21.7105 7.73641 21.8064 7.84728 21.8763C7.95815 21.9462 8.08444 21.9879 8.21512 21.9977C8.3458 22.0076 8.47691 21.9853 8.59701 21.9329C10.7306 20.9933 10.758 20.9191 11.1197 21.0175C17.3011 22.7188 24.001 18.763 24.001 11.7009C24.001 6.12682 19.6698 2 14.0227 2ZM20.0407 9.4653L17.097 14.1256C16.9859 14.3009 16.8397 14.4513 16.6677 14.5674C16.4957 14.6835 16.3016 14.7628 16.0975 14.8004C15.8934 14.838 15.6838 14.8331 15.4817 14.7858C15.2796 14.7386 15.0894 14.6502 14.9231 14.526L12.5811 12.7731C12.4764 12.6946 12.349 12.6522 12.2182 12.6522C12.0873 12.6522 11.9599 12.6946 11.8552 12.7731L8.695 15.17C8.2732 15.4898 7.72075 14.9845 8.00504 14.5381L10.9487 9.87782C11.0599 9.70253 11.206 9.55209 11.378 9.43594C11.55 9.31979 11.7441 9.24042 11.9482 9.20283C12.1523 9.16523 12.362 9.17021 12.5641 9.21746C12.7662 9.26471 12.9564 9.35321 13.1226 9.4774L15.4639 11.2299C15.5686 11.3084 15.6959 11.3509 15.8268 11.3509C15.9577 11.3509 16.085 11.3084 16.1897 11.2299L19.3516 8.83543C19.7726 8.51364 20.325 9.0185 20.0407 9.4653Z" fill="black"/>
</g>
<defs>
<filter id="filter0_d_1_89" x="-2" y="0" width="32" height="32" filterUnits="userSpaceOnUse" color-interpolation-filters="sRGB">
<feFlood flood-opacity="0" result="BackgroundImageFix"/>
<feColorMatrix in="SourceAlpha" type="matrix" values="0 0 0 0 0 0 0 0 0 0 0 0 0 0 0 0 0 0 127 0" result="hardAlpha"/>
<feOffset dy="4"/>
<feGaussianBlur stdDeviation="2"/>
<feComposite in2="hardAlpha" operator="out"/>
<feColorMatrix type="matrix" values="0 0 0 0 0 0 0 0 0 0 0 0 0 0 0 0 0 0 0.25 0"/>
<feBlend mode="normal" in2="BackgroundImageFix" result="effect1_dropShadow_1_89"/>
<feBlend mode="normal" in="SourceGraphic" in2="effect1_dropShadow_1_89" result="shape"/>
</filter>
</defs>
</svg>
